<?xml version="1.0" encoding="utf-8"?>
<!-- Generator: Adobe Illustrator 24.1.1, SVG Export Plug-In . SVG Version: 6.00 Build 0)  -->
<svg version="1.1" id="Layer_1" xmlns="http://www.w3.org/2000/svg" xmlns:xlink="http://www.w3.org/1999/xlink" x="0px" y="0px"
	 viewBox="0 0 512 512" style="enable-background:new 0 0 512 512;" xml:space="preserve">
<style type="text/css">
	.st0{fill:#4086CD;}
	.st1{fill:#FFFFFF;}
</style>
<g id="XMLID_1_">
	<circle id="XMLID_3_" class="st0" cx="256" cy="256" r="256"/>
	<path id="XMLID_4_" class="st1" d="M350,157.3c-10.2-12.1-25.1-19.5-41-19.5c-31.7-0.9-56.8,26.1-56.8,58.6c0,4.7,0.9,9.3,1.9,14
		c-46.5-2.8-88.4-27.9-116.4-64.2c-4.7,8.4-7.4,19.5-7.4,29.8c0,21.4,10.2,39.1,25.1,50.3c-9.3,0-17.7-2.8-26.1-7.4v0.9
		c0,28.9,19.5,54,45.6,59.6c-4.7,0.9-9.3,1.9-14.9,1.9c-3.7,0-7.4,0-10.2-0.9c7.4,24.2,27.9,41.9,53.1,41.9
		c-19.5,15.8-43.8,26.1-69.8,25.1c-4.7,0-9.3,0-13-0.9c25.1,16.8,54.9,27,86.6,27c104.3,0,161-90.3,161-169.4c0-2.8,0-5.6,0-7.4
		c11.2-8.4,20.5-18.6,27.9-30.7c-10.2,4.7-21.4,7.4-32.6,9.3c12.1-7.4,20.5-18.6,25.1-32.6C375.2,149.9,363.1,154.5,350,157.3z"/>
</g>
</svg>
