<?xml version="1.0" encoding="iso-8859-1"?>
<!-- Generator: Adobe Illustrator 16.0.0, SVG Export Plug-In . SVG Version: 6.00 Build 0)  -->
<!DOCTYPE svg PUBLIC "-//W3C//DTD SVG 1.1//EN" "http://www.w3.org/Graphics/SVG/1.1/DTD/svg11.dtd">
<svg version="1.1" id="Capa_1" xmlns="http://www.w3.org/2000/svg" xmlns:xlink="http://www.w3.org/1999/xlink" x="0px" y="0px"
	 width="552.001px" height="552.001px" viewBox="0 0 552.001 552.001" style="enable-background:new 0 0 552.001 552.001;"
	 xml:space="preserve">
<g>
	<g>
		<path d="M542.894,218.909C517.801,81.617,387.445-6.919,252.602,0.425C102.05,8.381,4.742,154.037,3.11,294.389
			C1.07,463.097,165.086,567.136,318.901,550.204c0.612,0,1.02-0.408,1.428-0.408c1.836,0.204,4.08,0.204,6.324-0.407
			C486.589,503.488,573.289,385.78,542.894,218.909z M193.238,507.568C140.402,487.78,95.93,453.916,66.554,404.344
			c1.224-1.224,1.836-3.06,1.02-5.304c-10.404-28.56,20.196-43.452,30.192-64.872c2.652-5.508,2.04-15.096,2.244-19.788
			c1.632-25.5,4.488-41.003,19.992-62.831c14.484-20.604,19.176-40.8,21.828-65.28c5.1-45.9-16.116-56.916,31.416-105.468
			c13.872-14.28,29.172-25.296,42.228-40.596c0.612-0.816,0.816-1.428,1.224-2.244c7.14-2.04,14.28-3.876,21.42-5.304
			c7.14,31.62-17.34,49.572-17.34,79.152c0,22.644,56.1,44.472,25.908,71.196c-13.056,11.628-32.844,36.924-37.128,52.428
			c-9.384,34.068-1.224,73.848-41.412,31.008c-4.896-5.1-12.852-3.264-16.524,2.04C96.542,352.528,251.378,433.924,193.238,507.568z
			 M402.949,484.721c-5.508-23.053-33.456-45.696-28.56-68.952c1.428-6.732,7.14-11.017,15.096-13.872
			c28.764,4.284,58.14,5.508,87.312,7.548c3.469,0.204,6.12-0.816,8.16-2.652C464.762,437.8,436.813,464.116,402.949,484.721z
			 M459.865,261.341c-6.528,4.08-16.32,6.12-21.42,11.832c-6.528,7.14-22.645,44.676-28.56-6.324
			c-6.937-60.792-55.488-139.536,3.876-190.332c0.611-0.408,1.02-1.02,1.224-1.428c43.248,32.232,76.5,78.948,93.84,131.172
			c5.508,16.524,8.976,32.436,11.016,48.144C499.237,250.325,478.633,249.305,459.865,261.341z"/>
	</g>
</g>
<g>
</g>
<g>
</g>
<g>
</g>
<g>
</g>
<g>
</g>
<g>
</g>
<g>
</g>
<g>
</g>
<g>
</g>
<g>
</g>
<g>
</g>
<g>
</g>
<g>
</g>
<g>
</g>
<g>
</g>
</svg>
