<svg id="Слой_1" data-name="Слой 1" xmlns="http://www.w3.org/2000/svg" xmlns:xlink="http://www.w3.org/1999/xlink" viewBox="0 0 1432 328"><defs><style>.cls-1{fill:url(#Безымянный_градиент);}.cls-2{fill:#f7f7f7;}.cls-3{fill:url(#Безымянный_градиент_2);}</style><linearGradient id="Безымянный_градиент" x1="237.64" y1="314.56" x2="-0.3" y2="4.89" gradientTransform="matrix(1, 0, 0, -1, 0, 330)" gradientUnits="userSpaceOnUse"><stop offset="0" stop-color="#00ffa3"/><stop offset="1" stop-color="#dc1fff"/></linearGradient><linearGradient id="Безымянный_градиент_2" x1="974.43" y1="277.56" x2="748.83" y2="-113.2" xlink:href="#Безымянный_градиент"/></defs><path class="cls-1" d="M91.15,208.55a32.65,32.65,0,0,0-45.83,5.57c-.44.56-.86,1.13-1.24,1.71a2.11,2.11,0,0,0-.18.27l-5.12,13.06L2.43,321.91l81.3-57.59,11.44-8.11a1.65,1.65,0,0,0,.22-.24c.48-.5.93-1.05,1.37-1.61A32.64,32.64,0,0,0,91.15,208.55ZM241.76,11.88A133.12,133.12,0,0,0,93.33,140.78c-16-3-39.61,8.08-59,20.12a8.48,8.48,0,0,0,3.59,15.63c42.74,4.91,84.18,33.95,97.07,71.1a8.47,8.47,0,0,0,16.13-.47c6-21.07,9.74-44.94,3.3-58.88a132.38,132.38,0,0,0,68.75-46.68A133,133,0,0,0,241.76,11.88ZM180.94,122.61a30.19,30.19,0,1,1,28.24-32A30.19,30.19,0,0,1,180.94,122.61Z"/><path class="cls-2" d="M375.93,94.29v97.83a11.41,11.41,0,0,1-11.42,11.4,11.19,11.19,0,0,1-11.23-11.4V94.29a11.33,11.33,0,1,1,22.65,0Z"/><path class="cls-2" d="M518,94.29a11.25,11.25,0,0,1-11.24,11.24H465.9v86.59a11.2,11.2,0,0,1-11.23,11.4,11.39,11.39,0,0,1-11.4-11.4V105.53h-40.7a11.32,11.32,0,1,1,0-22.64H506.74A11.35,11.35,0,0,1,518,94.29Z"/><path class="cls-2" d="M850.81,120.07A56.18,56.18,0,0,0,838,100.47C826.14,89,809.39,82.89,789.55,82.89H781.2c-19.84,0-36.59,6.07-48.42,17.58a59.69,59.69,0,0,0-13,19.62,65.63,65.63,0,0,0-4.22,23.12,66.54,66.54,0,0,0,4.24,23.31,56.47,56.47,0,0,0,13,19.44c11.83,11.49,28.56,17.56,48.4,17.56h8.35c19.84,0,36.59-6.07,48.4-17.56a54,54,0,0,0,12.86-19.44,63.18,63.18,0,0,0,4.39-23.31A62.41,62.41,0,0,0,850.81,120.07ZM789.55,180.9H781.2c-26.54,0-43-14.44-43-37.69s16.48-37.67,43-37.67h8.35c26.54,0,43,14.44,43,37.67S816.09,180.9,789.55,180.9Z"/><path class="cls-2" d="M1140.69,184.84a11.43,11.43,0,0,1-1.43,16,11.29,11.29,0,0,1-7.31,2.66,11,11,0,0,1-8.58-4.11l-38-44.81h-46.21v37.52a11.39,11.39,0,0,1-11.4,11.4,11.19,11.19,0,0,1-11.23-11.4V94.29a11.32,11.32,0,1,1,22.63,0V132h40.35A37.74,37.74,0,0,0,1117,94.29a11.4,11.4,0,1,1,22.8,0,59,59,0,0,1-4.89,23.5,60.83,60.83,0,0,1-12.84,19.08,62.55,62.55,0,0,1-13.41,10.22Z"/><path class="cls-2" d="M1287.09,143.21a11.41,11.41,0,0,1-11.4,11.4H1171.51a11.32,11.32,0,0,1,0-22.63h104.18A11.34,11.34,0,0,1,1287.09,143.21Z"/><path class="cls-2" d="M1287.09,94.29a11.34,11.34,0,0,1-11.4,11.24H1171.51a11.32,11.32,0,0,1,0-22.64h104.18A11.43,11.43,0,0,1,1287.09,94.29Z"/><path class="cls-2" d="M1287.09,192.12a11.41,11.41,0,0,1-11.4,11.4H1171.51a11.32,11.32,0,0,1,0-22.63h104.18A11.35,11.35,0,0,1,1287.09,192.12Z"/><path class="cls-2" d="M1429.15,94.29a11.25,11.25,0,0,1-11.23,11.24h-40.87v86.59a11.2,11.2,0,0,1-11.23,11.4,11.41,11.41,0,0,1-11.4-11.4V105.53h-40.7a11.32,11.32,0,1,1,0-22.64H1417.9A11.35,11.35,0,0,1,1429.15,94.29Z"/><path class="cls-2" d="M703.61,192.12a11.39,11.39,0,0,1-11.4,11.4h-17a11.24,11.24,0,0,1-8.37-3.56l-32.17-34.84H589.93v27a11.41,11.41,0,0,1-11.4,11.4,11.2,11.2,0,0,1-11.24-11.4V153.73a11.34,11.34,0,0,1,11.24-11.4H653a18.4,18.4,0,1,0,0-36.79H578.53a11.32,11.32,0,0,1,0-22.64H653A41.4,41.4,0,0,1,682,95a41,41,0,0,1,0,58.1,40,40,0,0,1-17.87,10.41l16,17.43h12A11.32,11.32,0,0,1,703.61,192.12Z"/><path class="cls-2" d="M893.1,143.21c0,23.25,16.48,37.69,43,37.69h8.35c13.68,0,24.89-3.81,32.38-11a11.34,11.34,0,1,1,15.68,16.38c-11.76,11.26-28.39,17.22-48.06,17.22h-8.35c-19.84,0-36.59-6.07-48.4-17.56a53.9,53.9,0,0,1-12.86-19.44,63.1,63.1,0,0,1-4.39-23.31,62.33,62.33,0,0,1,4.39-23.14,56.27,56.27,0,0,1,12.84-19.6C899.53,89,916.28,82.89,936.12,82.89h8.35c19.84,0,36.59,6.07,48.4,17.58a11.49,11.49,0,0,1,.19,16,11.26,11.26,0,0,1-16,.17c-7.63-7.29-18.87-11.13-32.55-11.13h-8.35C909.58,105.54,893.1,120,893.1,143.21Z"/><path class="cls-3" d="M529.52,237.87l-20,42.19h-3.13l-18.56-38.62L469.2,280.06h-2.93L446.2,237.87h3.23L467.69,277l18.66-39.11h3L507.94,277l18.36-39.11Zm54,21.46H537.59c.2,11,10,18.54,23.3,18.54,6.86,0,13.31-2,17.35-6.26l2.12,1.79c-4.74,4.55-11.8,6.91-19.47,6.91-15.43,0-26.53-8.86-26.53-21.38s10.49-21.38,24.61-21.38c13.92,0,24.51,8.7,24.51,21.06v.72Zm-45.79-2.19h42.67C579.55,247.22,570.78,240,559,240S538.4,247.22,537.69,257.14Zm62.23-37.4h3.33v60.32h-3.33Zm19.77,39.19c0-12.6,11-21.38,26-21.38,7.87,0,14.93,2.44,19.37,7.24l-2.52,1.71c-3.93-4.39-10.09-6.42-16.84-6.42-13,0-22.69,7.64-22.69,18.86s9.68,18.94,22.69,18.94c6.76,0,12.91-2,16.84-6.42l2.52,1.63c-4.44,4.8-11.5,7.24-19.37,7.24C630.69,280.31,619.69,271.53,619.69,258.93Zm54.37,0c0-12.52,11-21.38,25.72-21.38s25.72,8.86,25.72,21.38-10.89,21.38-25.72,21.38S674.06,271.45,674.06,258.93Zm48.11,0c0-11.22-9.58-18.86-22.39-18.86s-22.39,7.64-22.39,18.86,9.58,18.94,22.39,18.94S722.17,270.15,722.17,258.93Zm105.5-3.66v24.8h-3.33V255.44c0-10.08-6.46-15.37-17.45-15.37-12.61,0-20.48,6.83-20.48,17.24v22.76h-3.33V255.44c0-10.08-6.46-15.37-17.35-15.37-12.71,0-20.48,6.83-20.48,17.24v22.76h-3.33V237.88h3.23V248c3.23-6.42,10.59-10.49,20.78-10.49,10,0,17.25,3.9,19.57,11.46,3-6.83,10.79-11.46,21.58-11.46C819.7,237.55,827.67,243.64,827.67,255.27Zm65.06,4.06H846.84c.2,11,10,18.54,23.3,18.54,6.86,0,13.31-2,17.35-6.26l2.12,1.79c-4.74,4.55-11.8,6.91-19.47,6.91-15.43,0-26.53-8.86-26.53-21.38s10.49-21.38,24.61-21.38c13.92,0,24.51,8.7,24.51,21.06v.72Zm-45.8-2.19H889.6C888.79,247.22,880,240,868.22,240S847.64,247.22,846.93,257.14Zm124.27-4.39v27.32H968v-8.46c-3.23,5.28-9.88,8.7-19.47,8.7-11.8,0-18.76-4.8-18.76-11.87,0-6.18,4.84-11.54,19.06-11.54h19.06v-4.15c0-8.37-5.55-12.76-16.14-12.76-7.57,0-14.22,2.28-18.66,5.69l-1.82-2c5-3.82,12.61-6.18,20.58-6.18C964.34,237.55,971.2,242.83,971.2,252.75Zm-3.33,15.12v-8.78H948.8c-11.4,0-15.73,3.9-15.73,9.19,0,6,5.85,9.76,15.63,9.76S964.64,274.37,967.87,267.87Zm76.55-8.94c0,12.6-11.1,21.38-25.62,21.38-10.29,0-18.66-4.47-22.59-11.79v11.54H993V219.74h3.33v29.43c3.93-7.24,12.41-11.63,22.49-11.63C1033.33,237.55,1044.42,246.33,1044.42,258.93Zm-3.33,0c0-11.22-9.58-18.86-22.39-18.86s-22.39,7.64-22.39,18.86,9.58,18.94,22.39,18.94S1041.09,270.15,1041.09,258.93Zm13.82,0c0-12.52,11-21.38,25.72-21.38s25.72,8.86,25.72,21.38-10.89,21.38-25.72,21.38S1054.91,271.45,1054.91,258.93Zm48.11,0c0-11.22-9.58-18.86-22.39-18.86s-22.39,7.64-22.39,18.86,9.58,18.94,22.39,18.94S1103,270.15,1103,258.93Zm56.18-6.18v27.32H1156v-8.46c-3.23,5.28-9.88,8.7-19.47,8.7-11.8,0-18.76-4.8-18.76-11.87,0-6.18,4.84-11.54,19.06-11.54h19.06v-4.15c0-8.37-5.55-12.76-16.14-12.76-7.57,0-14.22,2.28-18.66,5.69l-1.82-2c5-3.82,12.61-6.18,20.58-6.18C1152.34,237.55,1159.2,242.83,1159.2,252.75Zm-3.33,15.12v-8.78h-19.06c-11.4,0-15.73,3.9-15.73,9.19,0,6,5.85,9.76,15.63,9.76S1152.65,274.37,1155.87,267.87Zm48.72-30.32v2.68h-.91c-12.2,0-19.37,6.59-19.37,17.4v22.44H1181V237.88h3.23V248C1187.24,241.37,1194.3,237.55,1204.59,237.55Zm59.61-17.81v60.32H1261V268.52c-3.93,7.32-12.31,11.79-22.59,11.79-14.53,0-25.62-8.78-25.62-21.38s11.09-21.38,25.62-21.38c10.09,0,18.56,4.39,22.49,11.63V219.75h3.33Zm-3.33,39.19c0-11.22-9.58-18.86-22.39-18.86s-22.39,7.64-22.39,18.86,9.58,18.94,22.39,18.94S1260.87,270.15,1260.87,258.93Z"/></svg>