<?xml version="1.0" encoding="utf-8"?>
<!-- Generator: Adobe Illustrator 26.3.1, SVG Export Plug-In . SVG Version: 6.00 Build 0)  -->
<svg version="1.1" xmlns="http://www.w3.org/2000/svg" xmlns:xlink="http://www.w3.org/1999/xlink" x="0px" y="0px"
	 viewBox="0 0 2000 2000" style="enable-background:new 0 0 2000 2000;" xml:space="preserve">
<style type="text/css">
	.st0{display:none;}
	.st1{display:inline;fill:url(#SVGID_1_);}
	.st2{display:inline;}
	
		.st3{fill:none;stroke:url(#SVGID_00000032621804235190480700000010930431130635663285_);stroke-width:1.4115;stroke-miterlimit:10;}
	.st4{fill:url(#SVGID_00000134244906873504308760000011298817868381845420_);}
	.st5{fill:url(#SVGID_00000071537804908372150360000001906046655611276987_);}
	.st6{fill:url(#SVGID_00000160175394787135941490000007852825521253175196_);}
	.st7{fill:url(#SVGID_00000099630159484833014040000012292049433851816871_);}
	.st8{fill:url(#SVGID_00000071529674595803474270000018048364666462983311_);}
	.st9{fill:url(#SVGID_00000144302269131883761730000000382159181927535522_);}
	.st10{fill:url(#SVGID_00000020369584329425684290000014172118769603372185_);}
	.st11{fill:url(#SVGID_00000004512428801215896120000002362642822829688458_);}
</style>
<g id="Слой_2" class="st0">
	<rect x="-56.05" y="-28.18" class="st2" width="2141.42" height="2141.42"/>
</g>
<g id="Слой_1">
	
		<linearGradient id="SVGID_1_" gradientUnits="userSpaceOnUse" x1="612.7478" y1="1548.4294" x2="1393.6583" y2="329.5391" gradientTransform="matrix(0.3039 -0.9527 0.9527 0.3039 -256.6341 1648.7479)">
		<stop  offset="0" style="stop-color:#00FFA3"/>
		<stop  offset="1" style="stop-color:#DC1FFF"/>
	</linearGradient>
	<path style="fill:url(#SVGID_1_);" d="M299.92,848.58l81.25,19.38l4.89-20.49c1.52-6.36,7.64-10.13,13.82-8.65
		c6.36,1.52,10.13,7.64,8.61,14l-15.12,63.41c-1.47,6.18-7.64,10.13-14,8.61c-6.18-1.47-9.91-7.78-8.43-13.96l4.89-20.49
		l-81.25-19.38l-4.89,20.49c-1.47,6.18-7.64,10.13-13.82,8.65c-6.18-1.47-10.08-7.82-8.61-14l15.12-63.41
		c1.52-6.36,7.82-10.08,14-8.61c6.18,1.47,9.95,7.6,8.43,13.96L299.92,848.58z M367.87,649.58c5.72,2.77,8.08,9.56,5.32,15.28
		l-19.69,40.7l85.49,41.36c5.89,2.85,8.25,9.64,5.48,15.36c-2.77,5.72-9.64,8.25-15.52,5.4l-85.49-41.36l-19.61,40.54
		c-2.77,5.72-9.64,8.25-15.36,5.48c-5.72-2.77-8.17-9.8-5.4-15.52l49.35-102C355.2,649.1,362.15,646.81,367.87,649.58z M573,566.25
		c4.9,4.33,5.35,11.5,1.14,16.27c-14.66,16.61-30.4,28.39-45.49,33.96c-17.98,6.65-34.95,4.75-49.22-5.43c0,0,0,0-0.14-0.12
		c0,0,0,0-0.14-0.12c0,0-0.14-0.12-0.27-0.24c-0.14-0.12-0.14-0.12-0.27-0.24l-0.14-0.12c-0.68-0.6-1.38-1.46-1.94-2.2
		c-0.14-0.12-0.14-0.12-0.15-0.38l-0.14-0.12l-0.14-0.12c-0.73-1.37-1.34-2.88-1.43-4.41c0,0,0,0-0.14-0.12l0.12-0.14
		c-0.1-1.54-0.07-3.21,0.48-4.66c0,0,0.12-0.14-0.02-0.26l0.12-0.14c0.12-0.14,0.12-0.14,0.1-0.39c0.12-0.14,0.24-0.27,0.22-0.53
		c0.23-0.53,0.59-0.94,0.81-1.47c0.12-0.14,0.24-0.27,0.36-0.41c0.12-0.14,0.12-0.14,0.12-0.14c0.12-0.14,0.24-0.27,0.24-0.27
		c0.12-0.14,0.24-0.27,0.36-0.41l-0.14-0.12l0.12-0.14l19.71-22.32c7.57-8.58,6.76-21.65-1.82-29.22
		c-8.58-7.57-21.78-6.88-29.35,1.7l-45.91,52l71.19,62.86c4.9,4.33,5.23,11.64,1.02,16.4c-4.21,4.76-11.38,5.21-16.28,0.88
		l-79.76-70.43c-4.76-4.21-5.35-11.5-1.14-16.27l53.6-60.71c7.81-8.85,18.56-13.89,30.22-14.74c11.67-0.6,22.96,3.08,31.81,10.89
		c8.85,7.81,13.89,18.56,14.74,30.22c0.6,11.67-3.08,22.96-10.89,31.81l-9.13,10.34c4.66,0.48,9.76-0.35,15.16-2.36
		c11.57-4.32,24.1-13.85,36.24-27.6C561.06,562.49,568.23,562.05,573,566.25z M662.79,411.52c6.76,4.69,12.65,11.03,17.43,18.32
		c4.88,7.44,8.24,15.23,9.94,23.45c1.64,8.47,1.73,16.89-0.25,25.13c-3.87,17.3-15.32,32.61-33.09,44.26l-7.75,5.07
		c-17.77,11.64-36.39,16.03-53.79,12.66c-8.35-1.48-16.18-4.81-23.14-9.81c-6.86-4.84-12.66-11.03-17.53-18.47
		c-4.78-7.29-8.24-15.23-9.84-23.3c-1.8-8.37-1.73-16.89,0.15-25.28c3.87-17.29,15.32-32.61,33.09-44.26l7.75-5.07
		c17.77-11.64,36.39-16.03,53.79-12.66C648,403.19,655.67,406.63,662.79,411.52z M660.93,442.49
		c-14.03-21.42-38.08-24.99-62.53-8.97l-7.75,5.07c-24.46,16.02-30.79,39.49-16.76,60.91c14.13,21.57,38.08,24.99,62.54,8.96
		l7.75-5.07C668.62,487.37,675.06,464.06,660.93,442.49z M731.42,409.62c7.17,21.92,30.76,33.88,52.67,26.71l56.95-18.62
		c6.04-1.98,12.63,1.22,14.6,7.26c2.03,6.21-1.39,12.68-7.43,14.66l-56.95,18.62c-8.28,2.71-16.9,3.81-25.57,3.01
		c-8.44-0.68-16.46-3.02-23.79-6.74c-7.56-3.83-14.19-8.92-19.72-15.33c-5.76-6.52-9.97-14.12-12.68-22.41
		c-2.71-8.28-3.81-16.9-3.01-25.57c0.74-8.26,3.08-16.29,6.91-23.85c3.66-7.5,8.75-14.13,15.16-19.67
		c6.58-5.59,14.13-9.97,22.41-12.68l56.95-18.63c6.04-1.97,12.68,1.39,14.66,7.43c1.97,6.04-1.45,12.51-7.49,14.49l-56.95,18.62
		C736.22,364.11,724.31,387.87,731.42,409.62z M988.75,353.95c-2.57,2.87-5.33,5.57-8.47,7.93c3.38,2,6.43,4.37,9.3,6.94
		c6.32,5.65,11.41,12.28,15.11,19.89c3.71,7.8,5.99,16.04,6.47,24.74c0.36,6.53-4.61,11.9-10.96,12.25
		c-6.35,0.35-11.71-4.44-12.07-10.97c-0.62-11.06-5.55-21.33-13.96-28.69c-8.23-7.36-18.99-11.13-30.05-10.51l-44.6,2.48l2.31,41.52
		c0.36,6.53-4.43,11.89-10.78,12.24c-6.35,0.35-11.89-4.43-12.25-10.96l-5.92-106.25c-0.35-6.35,4.61-11.9,10.96-12.25
		c6.35-0.35,11.72,4.62,12.07,10.97l2.32,41.7l44.6-2.48c11.06-0.62,21.33-5.55,28.68-13.97c7.54-8.24,11.31-19,10.69-30.06
		c-0.35-6.35,4.43-11.89,10.78-12.24c6.35-0.35,11.9,4.61,12.25,10.96c0.49,8.7-0.85,17.33-3.67,25.48
		C998.72,340.48,994.39,347.64,988.75,353.95z M1067.51,379.25l-1.77,8.35c-2.48,11.73,5.12,23.17,16.67,25.61l69.11,14.61
		c6.22,1.32,10.14,7.34,8.83,13.56c-1.35,6.4-7.38,10.32-13.6,9l-69.11-14.61c-11.72-2.48-21.59-9.39-28.21-19.33
		c-6.44-9.9-8.73-21.89-6.25-33.62l8.26-39.09c2.48-11.72,9.43-21.76,19.54-28.35c10.12-6.58,22.11-8.87,33.83-6.39l52.06,11.01
		c20.61,4.36,33.74,24.77,29.38,45.37c-4.32,20.43-24.59,33.78-45.2,29.42L1067.51,379.25z M1072.29,356.69l73.55,15.55
		c8.17,1.73,16.17-3.63,17.86-11.63c1.73-8.17-3.42-16.31-11.59-18.04l-52.06-11.01c-11.9-2.52-23.56,5.23-26.04,16.95
		L1072.29,356.69z M1356.41,414.55c-2.82,5.69-9.64,7.99-15.33,5.17l-40.51-20.08l-42.19,85.09c-2.9,5.86-9.72,8.15-15.41,5.33
		c-5.69-2.82-8.16-9.72-5.25-15.57l42.18-85.09l-40.35-20c-5.69-2.82-8.15-9.72-5.33-15.41c2.82-5.69,9.88-8.07,15.57-5.25
		l101.52,50.33C1357.02,401.88,1359.24,408.85,1356.41,414.55z M1354.06,542.84c-4.78,6.4-13.93,7.73-20.33,2.95
		c-6.4-4.78-7.73-13.93-2.95-20.33c4.78-6.4,13.93-7.73,20.33-2.95C1357.51,527.29,1358.84,536.44,1354.06,542.84z M1525.56,599.35
		c-3.22,7.21-7.68,13.34-13.4,18.65l-44.16,41.05c-4.79,4.45-11.97,4.19-16.3-0.47c-4.45-4.79-4.19-11.98,0.6-16.43l44.16-41.05
		c13.97-12.98,14.77-35.05,1.79-49.02l-14.22-15.3c-12.98-13.97-35.05-14.77-49.02-1.79l-44.16,41.05
		c-4.79,4.45-11.98,4.19-16.3-0.47c-4.33-4.65-4.19-11.97,0.6-16.43l44.16-41.05c5.72-5.32,12.29-9.19,19.58-12
		c6.9-2.45,14.27-3.59,21.84-3.44c7.44,0.27,14.71,1.95,21.53,5.03c6.95,3.21,13.34,7.68,18.66,13.4l14.22,15.3
		c5.32,5.72,9.31,12.42,12,19.58c2.57,7.03,3.71,14.4,3.44,21.84C1530.18,585.38,1528.5,592.65,1525.56,599.35z M1529.11,679.15
		l-7.54,3.99c-10.59,5.61-14.51,18.78-8.99,29.21l33.04,62.44c2.97,5.62,0.86,12.49-4.76,15.46c-5.78,3.06-12.65,0.94-15.62-4.68
		l-33.04-62.44c-5.61-10.59-6.61-22.59-3.22-34.04c3.48-11.29,11.22-20.73,21.81-26.34l35.31-18.69c10.59-5.61,22.75-6.7,34.29-3.15
		c11.54,3.55,20.98,11.3,26.58,21.89l24.89,47.03c9.85,18.62,2.59,41.78-16.03,51.63c-18.46,9.77-41.69,2.75-51.54-15.87
		L1529.11,679.15z M1549.49,668.36l35.17,66.45c3.91,7.38,13.15,10.09,20.37,6.27c7.38-3.91,10.34-13.07,6.43-20.46l-24.89-47.03
		c-5.69-10.75-19.11-14.75-29.7-9.14L1549.49,668.36z M1686.85,923.78c-6.18,1.47-12.31-2.3-13.78-8.48l-10.46-43.99l-92.4,21.98
		c-6.36,1.51-12.48-2.26-13.95-8.44c-1.47-6.18,2.26-12.48,8.62-14l92.4-21.98l-10.42-43.81c-1.47-6.18,2.26-12.48,8.44-13.95
		s12.53,2.43,14,8.62l26.22,110.24C1696.98,916.14,1693.04,922.3,1686.85,923.78z M1658.31,1189.97l-81.38-18.83l-4.75,20.52
		c-1.47,6.37-7.57,10.18-13.77,8.74c-6.37-1.47-10.18-7.57-8.7-13.94l14.69-63.52c1.43-6.19,7.57-10.18,13.94-8.7
		c6.19,1.43,9.96,7.71,8.53,13.9l-4.75,20.52l81.38,18.83l4.75-20.52c1.43-6.19,7.57-10.18,13.77-8.74
		c6.19,1.43,10.14,7.75,8.7,13.94l-14.69,63.52c-1.47,6.37-7.75,10.14-13.94,8.7s-10-7.53-8.53-13.9L1658.31,1189.97z
		 M1591.73,1389.42c-5.74-2.73-8.15-9.5-5.42-15.24l19.41-40.84l-85.78-40.77c-5.9-2.81-8.31-9.58-5.59-15.32
		c2.73-5.74,9.58-8.31,15.49-5.51l85.78,40.77l19.33-40.68c2.73-5.74,9.58-8.31,15.32-5.58c5.74,2.73,8.24,9.74,5.51,15.48
		l-48.64,102.35C1604.41,1389.81,1597.47,1392.14,1591.73,1389.42z M1387.19,1474.17c-4.93-4.29-5.43-11.47-1.25-16.26
		c14.55-16.71,30.2-28.6,45.26-34.28c17.94-6.78,34.92-4.99,49.27,5.09c0,0,0,0,0.14,0.12c0,0,0,0,0.14,0.12
		c0,0,0.14,0.12,0.27,0.24c0.14,0.12,0.14,0.12,0.27,0.24l0.14,0.12c0.69,0.6,1.39,1.45,1.95,2.18c0.14,0.12,0.14,0.12,0.15,0.38
		l0.14,0.12l0.14,0.12c0.74,1.36,1.36,2.87,1.46,4.4c0,0,0,0,0.14,0.12l-0.12,0.14c0.11,1.54,0.09,3.21-0.45,4.67
		c0,0-0.12,0.14,0.02,0.26l-0.12,0.14c-0.12,0.14-0.12,0.14-0.1,0.39c-0.12,0.14-0.24,0.27-0.22,0.53c-0.22,0.53-0.58,0.94-0.8,1.47
		c-0.12,0.14-0.24,0.27-0.36,0.41c-0.12,0.14-0.12,0.14-0.12,0.14c-0.12,0.14-0.24,0.27-0.24,0.27c-0.12,0.14-0.24,0.27-0.36,0.41
		l0.14,0.12l-0.12,0.14l-19.56,22.46c-7.51,8.63-6.61,21.7,2.02,29.21c8.63,7.51,21.83,6.73,29.35-1.9l45.55-52.32l-71.63-62.37
		c-4.93-4.29-5.31-11.6-1.13-16.4c4.17-4.79,11.35-5.29,16.28-1l80.26,69.88c4.79,4.17,5.43,11.47,1.25,16.26l-53.18,61.09
		c-7.75,8.9-18.47,14.02-30.12,14.96c-11.67,0.68-22.98-2.92-31.89-10.67c-8.9-7.75-14.02-18.47-14.95-30.12
		c-0.68-11.67,2.91-22.98,10.67-31.89l9.06-10.41c-4.66-0.45-9.75,0.42-15.15,2.46c-11.54,4.4-24,14.02-36.05,27.85
		C1399.15,1477.84,1391.98,1478.34,1387.19,1474.17z M1298.42,1629.5c-6.79-4.64-12.73-10.95-17.55-18.2
		c-4.93-7.41-8.34-15.17-10.09-23.38c-1.7-8.46-1.84-16.88,0.08-25.13c3.75-17.32,15.1-32.72,32.8-44.48l7.71-5.13
		c17.69-11.76,36.28-16.27,53.71-13.03c8.36,1.42,16.21,4.71,23.21,9.65c6.89,4.79,12.73,10.95,17.65,18.36
		c4.83,7.26,8.34,15.17,9.99,23.23c1.85,8.36,1.84,16.88,0.02,25.28c-3.75,17.32-15.1,32.72-32.79,44.48l-7.71,5.13
		c-17.69,11.76-36.28,16.27-53.71,13.03C1313.27,1637.73,1305.57,1634.35,1298.42,1629.5z M1300.07,1598.53
		c14.18,21.32,38.25,24.73,62.59,8.54l7.71-5.13c24.35-16.19,30.52-39.7,16.35-61.02c-14.28-21.47-38.25-24.73-62.59-8.54
		l-7.71,5.13C1292.07,1553.69,1285.79,1577.06,1300.07,1598.53z M1229.82,1631.89c-7.32-21.87-30.99-33.67-52.86-26.35l-56.83,19.02
		c-6.03,2.02-12.63-1.13-14.65-7.16c-2.07-6.2,1.3-12.69,7.33-14.71l56.83-19.02c8.27-2.77,16.88-3.93,25.55-3.19
		c8.44,0.62,16.48,2.91,23.84,6.57c7.58,3.78,14.25,8.83,19.83,15.19c5.81,6.48,10.07,14.06,12.83,22.32
		c2.77,8.27,3.93,16.88,3.19,25.55c-0.68,8.27-2.97,16.31-6.75,23.9c-3.61,7.53-8.65,14.19-15.02,19.77
		c-6.54,5.64-14.06,10.07-22.32,12.83l-56.83,19.02c-6.03,2.02-12.69-1.31-14.71-7.33c-2.02-6.03,1.36-12.52,7.39-14.54l56.83-19.02
		C1225.34,1677.43,1237.08,1653.58,1229.82,1631.89z M972.9,1689.31c2.55-2.89,5.29-5.61,8.41-7.99c-3.4-1.97-6.46-4.33-9.35-6.87
		c-6.36-5.61-11.5-12.2-15.25-19.79c-3.76-7.77-6.1-15.99-6.64-24.69c-0.41-6.52,4.53-11.93,10.87-12.33
		c6.34-0.4,11.74,4.36,12.15,10.88c0.69,11.05,5.7,21.29,14.16,28.59c8.28,7.3,19.07,10.99,30.12,10.3l44.58-2.8l-2.6-41.5
		c-0.41-6.52,4.35-11.92,10.69-12.31c6.34-0.4,11.92,4.35,12.33,10.87l6.66,106.2c0.4,6.34-4.53,11.93-10.87,12.33
		c-6.34,0.4-11.75-4.54-12.14-10.88l-2.61-41.68l-44.58,2.8c-11.06,0.69-21.29,5.7-28.59,14.16c-7.49,8.29-11.18,19.08-10.48,30.13
		c0.4,6.34-4.35,11.92-10.69,12.31c-6.34,0.4-11.93-4.53-12.33-10.87c-0.55-8.7,0.73-17.33,3.49-25.51
		C963.01,1702.85,967.29,1695.67,972.9,1689.31z M893.98,1664.56l1.71-8.36c2.4-11.74-5.28-23.13-16.85-25.5l-69.21-14.14
		c-6.23-1.27-10.19-7.27-8.92-13.5c1.31-6.4,7.31-10.37,13.53-9.1l69.21,14.14c11.74,2.4,21.65,9.24,28.34,19.14
		c6.51,9.86,8.88,21.83,6.48,33.57l-8,39.14c-2.4,11.74-9.28,21.83-19.35,28.48c-10.07,6.65-22.05,9.02-33.79,6.63l-52.13-10.65
		c-20.64-4.22-33.91-24.53-29.69-45.17c4.18-20.46,24.36-33.94,44.99-29.73L893.98,1664.56z M889.36,1687.15l-73.65-15.05
		c-8.18-1.67-16.15,3.74-17.78,11.75c-1.67,8.18,3.53,16.29,11.71,17.96l52.13,10.65c11.92,2.44,23.53-5.39,25.92-17.13
		L889.36,1687.15z M604.82,1631.22c2.78-5.71,9.58-8.06,15.3-5.27l40.65,19.81l41.6-85.38c2.86-5.88,9.66-8.22,15.37-5.44
		c5.71,2.78,8.22,9.66,5.36,15.54l-41.6,85.38l40.48,19.73c5.71,2.78,8.22,9.66,5.44,15.38c-2.78,5.71-9.82,8.14-15.54,5.36
		l-101.86-49.64C604.3,1643.9,602.03,1636.94,604.82,1631.22z M606.3,1502.95c4.73-6.44,13.87-7.83,20.31-3.09
		c6.44,4.73,7.83,13.87,3.09,20.31c-4.73,6.44-13.88,7.83-20.31,3.09C602.96,1518.52,601.56,1509.38,606.3,1502.95z M434.41,1447.61
		c3.17-7.23,7.59-13.39,13.27-18.75l43.88-41.35c4.76-4.48,11.95-4.27,16.31,0.36c4.48,4.76,4.27,11.95-0.49,16.43l-43.88,41.35
		c-13.88,13.08-14.53,35.15-1.46,49.03l14.32,15.2c13.08,13.88,35.15,14.53,49.03,1.45l43.88-41.35c4.76-4.48,11.95-4.27,16.31,0.36
		c4.36,4.63,4.27,11.95-0.49,16.43l-43.88,41.35c-5.68,5.36-12.22,9.27-19.5,12.14c-6.88,2.49-14.24,3.69-21.82,3.59
		c-7.44-0.22-14.72-1.85-21.57-4.88c-6.97-3.16-13.39-7.59-18.75-13.27l-14.32-15.2c-5.36-5.68-9.4-12.35-12.14-19.5
		c-2.62-7.02-3.81-14.37-3.59-21.82C429.89,1461.61,431.51,1454.34,434.41,1447.61z M430.33,1367.87l7.52-4.04
		c10.55-5.68,14.38-18.87,8.79-29.27l-33.47-62.2c-3.01-5.6-0.94-12.48,4.65-15.49c5.76-3.1,12.64-1.03,15.65,4.57l33.47,62.2
		c5.68,10.55,6.77,22.55,3.46,34.02c-3.4,11.31-11.07,20.81-21.63,26.48l-35.18,18.93c-10.55,5.68-22.71,6.85-34.26,3.38
		c-11.56-3.47-21.05-11.15-26.73-21.7l-25.21-46.85c-9.98-18.55-2.88-41.75,15.67-51.73c18.39-9.9,41.67-3.04,51.65,15.51
		L430.33,1367.87z M410.02,1378.8l-35.62-66.2c-3.96-7.35-13.22-10-20.41-6.13c-7.36,3.96-10.25,13.14-6.29,20.5l25.21,46.85
		c5.76,10.71,19.21,14.62,29.76,8.94L410.02,1378.8z M270.88,1124.26c6.17-1.51,12.32,2.22,13.84,8.39l10.77,43.92l92.25-22.61
		c6.35-1.56,12.5,2.17,14.01,8.34s-2.17,12.5-8.52,14.06l-92.25,22.61l10.72,43.74c1.51,6.17-2.17,12.5-8.34,14.01
		c-6.17,1.51-12.54-2.35-14.06-8.52l-26.98-110.06C260.8,1131.97,264.71,1125.77,270.88,1124.26z"/>
</g>
</svg>
