<?xml version="1.0" encoding="utf-8"?>
<!-- Generator: Adobe Illustrator 26.3.1, SVG Export Plug-In . SVG Version: 6.00 Build 0)  -->
<svg version="1.1" xmlns="http://www.w3.org/2000/svg" xmlns:xlink="http://www.w3.org/1999/xlink" x="0px" y="0px"
	 viewBox="0 0 2000 2000" style="enable-background:new 0 0 2000 2000;" xml:space="preserve">
<style type="text/css">
	.st0{display:none;}
	.st1{display:inline;fill:url(#SVGID_1_);}
	.st2{display:inline;}
	
		.st3{fill:none;stroke:url(#SVGID_00000014615749172193693980000011161341772014066827_);stroke-width:1.4115;stroke-miterlimit:10;}
	.st4{fill:url(#SVGID_00000003798314756691918060000001754167744284831114_);}
	.st5{fill:url(#SVGID_00000008109927806241685650000008104010275636597404_);}
	.st6{fill:url(#SVGID_00000081633371762758297160000013633773633773679511_);}
	.st7{fill:url(#SVGID_00000139264273955794395050000014538151943743865482_);}
	.st8{fill:url(#SVGID_00000176007297070672169320000018380044823546914185_);}
	.st9{fill:url(#SVGID_00000145016720554517613910000009522738779629831865_);}
	.st10{fill:url(#SVGID_00000149370087424232192530000013314168391508851638_);}
</style>
<g id="Слой_2" class="st0">
	<rect x="-56.05" y="-28.18" class="st2" width="2141.42" height="2141.42"/>
</g>
<g id="Слой_1">
	<linearGradient id="SVGID_1_" gradientUnits="userSpaceOnUse" x1="1253.1174" y1="653.6519" x2="663.8083" y2="1420.6237">
		<stop  offset="0" style="stop-color:#00FFA3"/>
		<stop  offset="1" style="stop-color:#DC1FFF"/>
	</linearGradient>
	<path style="fill:url(#SVGID_1_);" d="M890.3,1131.93c-35.14-27.51-85.98-21.35-113.5,13.8c-1.09,1.38-2.12,2.8-3.06,4.23
		c-0.15,0.21-0.34,0.44-0.45,0.66l-12.67,32.34l-90.05,229.73l201.34-142.63l28.34-20.07c0.19-0.16,0.39-0.41,0.53-0.6
		c1.18-1.25,2.3-2.61,3.39-3.99C931.68,1210.25,925.48,1159.46,890.3,1131.93z M1263.31,644.85
		c-111.02-12.8-225.82,31.17-299.07,126.12c-44.49,57.7-66.88,125.45-68.52,193.1c-39.73-7.42-98.1,20.01-146.18,49.84
		c-17.01,10.53-10.99,36.44,8.89,38.72c105.86,12.17,208.49,84.09,240.41,176.1c6.68,19.26,34.35,18.45,39.94-1.17
		c14.84-52.19,24.12-111.31,8.18-145.82c65.38-18.65,125.58-57.63,170.28-115.6C1290.5,871.21,1303.89,748.97,1263.31,644.85z
		 M1112.69,919.09c-41.22,2.61-76.73-28.69-79.33-69.91c-2.61-41.25,28.69-76.77,69.91-79.36c41.25-2.59,76.75,28.69,79.36,69.94
		C1185.23,880.98,1153.93,916.49,1112.69,919.09z"/>
</g>
</svg>
