<svg
  width="64"
  height="64"
  viewBox="0 0 64 64"
  fill="none"
  xmlns="http://www.w3.org/2000/svg"
>
<path
    fill-rule="evenodd"
    clip-rule="evenodd"
    d="M32.4459 31.7566C36.469 31.7566 39.7303 28.4952 39.7303 24.4721C39.7303 20.449 36.469 17.1876 32.4459 17.1876C28.4227 17.1876 25.1614 20.449 25.1614 24.4721C25.1614 28.4952 28.4227 31.7566 32.4459 31.7566ZM32.4459 37.0262C39.3793 37.0262 45 31.4056 45 24.4721C45 17.5386 39.3793 11.918 32.4459 11.918C25.5124 11.918 19.8917 17.5386 19.8917 24.4721C19.8917 31.4056 25.5124 37.0262 32.4459 37.0262Z"
    fill="white"
  />
<path
    fill-rule="evenodd"
    clip-rule="evenodd"
    d="M32.43 46.7181C34.3595 46.7181 36.21 45.9426 37.5743 44.5622C38.9387 43.1818 39.7052 41.3095 39.7052 39.3573L44.9681 39.3573C44.9681 42.7217 43.6472 45.9484 41.2958 48.3274C38.9444 50.7064 35.7553 52.043 32.43 52.043C29.1046 52.043 25.9155 50.7064 23.5641 48.3274C21.2128 45.9484 19.8918 42.7217 19.8918 39.3573L25.1547 39.3573C25.1547 41.3095 25.9212 43.1818 27.2856 44.5622C28.65 45.9426 30.5005 46.7181 32.43 46.7181Z"
    fill="white"
  />
<path
    fill-rule="evenodd"
    clip-rule="evenodd"
    d="M29.9788 12.8326L29.9788 7.78906L35.0223 7.78906L35.0223 12.8326L29.9788 12.8326Z"
    fill="white"
  />
<path
    fill-rule="evenodd"
    clip-rule="evenodd"
    d="M29.9788 56.2076L29.9788 51.1641L35.0223 51.1641L35.0223 56.2076L29.9788 56.2076Z"
    fill="white"
  />
</svg>
